<svg width="24" height="24" viewBox="0 0 24 24" fill="none" xmlns="http://www.w3.org/2000/svg">
<g clip-path="url(#clip0_116_736)">
<path d="M7.0301 0.0839862C5.7533 0.144226 4.88138 0.347986 4.11914 0.647506C3.33026 0.954946 2.66162 1.36751 1.99634 2.03519C1.33106 2.70287 0.921379 3.37199 0.616099 4.16207C0.320659 4.92599 0.120499 5.79863 0.0640995 7.07615C0.00769946 8.35367 -0.00478054 8.76431 0.00145946 12.023C0.00769946 15.2817 0.0220995 15.6902 0.0840195 16.9704C0.144979 18.2469 0.348019 19.1186 0.647539 19.8811C0.955459 20.67 1.36754 21.3384 2.03546 22.0039C2.70338 22.6694 3.37202 23.0781 4.16402 23.3839C4.92722 23.6789 5.8001 23.88 7.07738 23.9359C8.35466 23.9918 8.76578 24.0048 12.0235 23.9985C15.2813 23.9923 15.6915 23.9779 16.9714 23.9172C18.2513 23.8565 19.1184 23.652 19.8811 23.3539C20.67 23.0453 21.3389 22.6339 22.0039 21.9657C22.669 21.2976 23.0784 20.628 23.3835 19.8374C23.6791 19.0742 23.88 18.2013 23.9355 16.925C23.9914 15.6441 24.0046 15.2352 23.9983 11.9769C23.9921 8.71871 23.9775 8.31023 23.9167 7.03055C23.856 5.75087 23.6527 4.88183 23.3535 4.11887C23.0451 3.32999 22.6335 2.66207 21.9658 1.99607C21.2981 1.33007 20.628 0.920866 19.8377 0.616546C19.074 0.321106 18.2016 0.119746 16.9243 0.0645462C15.6471 0.00934617 15.2359 -0.00481383 11.977 0.00142617C8.71802 0.00766617 8.31002 0.0215862 7.0301 0.0839862ZM7.17026 21.7771C6.00026 21.7262 5.36498 21.5318 4.94162 21.3691C4.38098 21.1531 3.98162 20.892 3.5597 20.4741C3.13778 20.0563 2.87858 19.6555 2.6597 19.0961C2.4953 18.6727 2.2973 18.0381 2.24258 16.8681C2.18306 15.6036 2.17058 15.2239 2.16362 12.0201C2.15666 8.81639 2.1689 8.43719 2.22434 7.17215C2.27426 6.00311 2.46986 5.36711 2.63234 4.94399C2.84834 4.38263 3.1085 3.98399 3.5273 3.56231C3.9461 3.14063 4.3457 2.88095 4.90562 2.66207C5.3285 2.49695 5.96306 2.30063 7.13258 2.24495C8.3981 2.18495 8.7773 2.17295 11.9806 2.16599C15.1839 2.15903 15.564 2.17103 16.83 2.22671C17.9991 2.27759 18.6353 2.47127 19.0579 2.63471C19.6188 2.85071 20.0179 3.11015 20.4396 3.52967C20.8613 3.94919 21.1212 4.34735 21.3401 4.90847C21.5055 5.33015 21.7018 5.96447 21.757 7.13471C21.8172 8.40023 21.8309 8.77967 21.8367 11.9827C21.8424 15.1857 21.8311 15.5661 21.7757 16.8307C21.7246 18.0007 21.5307 18.6362 21.3677 19.0601C21.1517 19.6205 20.8913 20.0201 20.4723 20.4415C20.0532 20.8629 19.6541 21.1226 19.0939 21.3415C18.6715 21.5064 18.0363 21.7032 16.8677 21.7589C15.6022 21.8184 15.223 21.8309 12.0185 21.8378C8.81402 21.8448 8.43602 21.8318 7.1705 21.7771M16.9529 5.58647C16.9534 5.87129 17.0383 6.14958 17.1969 6.38613C17.3556 6.62268 17.5808 6.80688 17.8442 6.91541C18.1075 7.02395 18.3971 7.05196 18.6764 6.99589C18.9556 6.93982 19.212 6.8022 19.413 6.60043C19.614 6.39866 19.7507 6.1418 19.8058 5.86235C19.8608 5.58289 19.8317 5.29339 19.7222 5.03045C19.6127 4.76752 19.4277 4.54296 19.1906 4.38518C18.9534 4.22741 18.6748 4.1435 18.39 4.14407C18.0082 4.14483 17.6423 4.29721 17.3728 4.5677C17.1033 4.83819 16.9523 5.20464 16.9529 5.58647ZM5.8385 12.012C5.84522 15.4152 8.60906 18.1677 12.0115 18.1613C15.414 18.1548 18.1685 15.3912 18.162 11.988C18.1555 8.58479 15.391 5.83151 11.988 5.83823C8.58506 5.84495 5.83202 8.60927 5.8385 12.012ZM7.99994 12.0077C7.99837 11.2165 8.23144 10.4427 8.66968 9.78401C9.10791 9.12534 9.73162 8.6114 10.4619 8.3072C11.1923 8.003 11.9964 7.92219 12.7726 8.075C13.5489 8.22781 14.2624 8.60736 14.8229 9.16568C15.3834 9.72399 15.7658 10.436 15.9217 11.2116C16.0776 11.9872 15.9999 12.7917 15.6986 13.5232C15.3973 14.2547 14.8859 14.8805 14.2289 15.3213C13.572 15.7621 12.7991 15.9983 12.0079 15.9998C11.4826 16.0009 10.9622 15.8985 10.4765 15.6985C9.99076 15.4985 9.54918 15.2047 9.17699 14.834C8.8048 14.4633 8.50929 14.0228 8.30733 13.5379C8.10537 13.053 8.00091 12.533 7.99994 12.0077Z" fill="#AEAEAE"/>
</g>
<defs>
<clipPath id="clip0_116_736">
<rect width="24" height="24" fill="white"/>
</clipPath>
</defs>
</svg>
