<svg width="24" height="25" viewBox="0 0 24 25" fill="none" xmlns="http://www.w3.org/2000/svg">
<path d="M7 18.5V17.5C7 14.7386 9.23858 12.5 12 12.5C14.7614 12.5 17 14.7386 17 17.5V18.5" stroke="black" stroke-width="1.5" stroke-linecap="round" stroke-linejoin="round"/>
<path d="M1 18.5V17.5C1 15.8431 2.34315 14.5 4 14.5" stroke="black" stroke-width="1.5" stroke-linecap="round" stroke-linejoin="round"/>
<path d="M23 18.5V17.5C23 15.8431 21.6569 14.5 20 14.5" stroke="black" stroke-width="1.5" stroke-linecap="round" stroke-linejoin="round"/>
<path d="M12 12.5C13.6569 12.5 15 11.1569 15 9.5C15 7.84315 13.6569 6.5 12 6.5C10.3431 6.5 9 7.84315 9 9.5C9 11.1569 10.3431 12.5 12 12.5Z" stroke="black" stroke-width="1.5" stroke-linecap="round" stroke-linejoin="round"/>
<path d="M4 14.5C5.10457 14.5 6 13.6046 6 12.5C6 11.3954 5.10457 10.5 4 10.5C2.89543 10.5 2 11.3954 2 12.5C2 13.6046 2.89543 14.5 4 14.5Z" stroke="black" stroke-width="1.5" stroke-linecap="round" stroke-linejoin="round"/>
<path d="M20 14.5C21.1046 14.5 22 13.6046 22 12.5C22 11.3954 21.1046 10.5 20 10.5C18.8954 10.5 18 11.3954 18 12.5C18 13.6046 18.8954 14.5 20 14.5Z" stroke="black" stroke-width="1.5" stroke-linecap="round" stroke-linejoin="round"/>
</svg>
